<svg width="200" height="300" viewBox="0 0 100 150" xmlns="http://www.w3.org/2000/svg">
  <defs>
    <linearGradient id="simpleArmor" x1="0%" y1="0%" x2="0%" y2="100%">
      <stop offset="0%" stop-color="#8B4513"/>
      <stop offset="100%" stop-color="#5D2906"/>
    </linearGradient>
    <linearGradient id="simpleCloak">
      <stop offset="0%" stop-color="#1A237E"/>
      <stop offset="100%" stop-color="#283593"/>
    </linearGradient>
  </defs>

  <!-- Силуэт и основа -->
  <!-- Плащ -->
  <path d="M 30 40 Q 50 20 70 40 L 65 120 Q 50 100 35 120 Z" 
        fill="url(#simpleCloak)" opacity="0.9" stroke="#0D1B3A" stroke-width="1"/>
  
  <!-- Тело -->
  <rect x="40" y="50" width="20" height="50" fill="url(#simpleArmor)" stroke="#000" stroke-width="1"/>
  
  <!-- Голова -->
  <circle cx="50" cy="35" r="12" fill="#FFDBAC" stroke="#000" stroke-width="1"/>
  
  <!-- Борода -->
  <path d="M 42 38 Q 50 50 58 38" stroke="#8D6E63" stroke-width="4" stroke-linecap="round" fill="none"/>
  
  <!-- Волосы и шапка -->
  <path d="M 40 25 Q 50 18 60 25 L 58 35 L 42 35 Z" fill="#5D4037"/>
  <rect x="44" y="20" width="12" height="8" fill="#C62828" stroke="#000" stroke-width="0.5"/>
  
  <!-- Лицо - минималистичное -->
  <!-- Глаза -->
  <line x1="45" y1="32" x2="48" y2="32" stroke="#1565C0" stroke-width="2" stroke-linecap="round"/>
  <line x1="52" y1="32" x2="55" y2="32" stroke="#1565C0" stroke-width="2" stroke-linecap="round"/>
  
  <!-- Брови -->
  <path d="M 44 30 L 46 28" stroke="#5D4037" stroke-width="1.5" stroke-linecap="round"/>
  <path d="M 56 30 L 54 28" stroke="#5D4037" stroke-width="1.5" stroke-linecap="round"/>
  
  <!-- Рот -->
  <path d="M 46 40 Q 50 42 54 40" stroke="#5D4037" stroke-width="1" fill="none"/>
  
  <!-- Ключевые детали -->
  <!-- Плечи -->
  <circle cx="38" cy="55" r="6" fill="url(#simpleArmor)" stroke="#000" stroke-width="1"/>
  <circle cx="62" cy="55" r="6" fill="url(#simpleArmor)" stroke="#000" stroke-width="1"/>
  
  <!-- Оберег -->
  <circle cx="50" cy="65" r="5" fill="none" stroke="#FFD700" stroke-width="1"/>
  <circle cx="50" cy="65" r="2" fill="#FFD700"/>
  
  <!-- Пояс -->
  <rect x="38" y="85" width="24" height="4" fill="#5D2906" stroke="#000" stroke-width="0.5"/>
  
  <!-- Ноги -->
  <rect x="42" y="100" width="6" height="30" fill="#2C3E50" stroke="#000" stroke-width="1"/>
  <rect x="52" y="100" width="6" height="30" fill="#2C3E50" stroke="#000" stroke-width="1"/>
  
  <!-- Технологические элементы -->
  <!-- Наручи -->
  <rect x="32" y="65" width="4" height="10" fill="#37474F" stroke="#000" stroke-width="0.5"/>
  <rect x="64" y="65" width="4" height="10" fill="#37474F" stroke="#000" stroke-width="0.5"/>
  
  <!-- Плечевые генераторы -->
  <circle cx="38" cy="55" r="2" fill="#4FC3F7"/>
  <circle cx="62" cy="55" r="2" fill="#4FC3F7"/>
</svg>