<svg width="200" height="300" viewBox="0 0 100 150" xmlns="http://www.w3.org/2000/svg">
  <defs>
    <linearGradient id="handle" x1="0%" y1="0%" x2="0%" y2="100%">
      <stop offset="0%" stop-color="#8B4513"/>
      <stop offset="100%" stop-color="#5D2906"/>
    </linearGradient>
    <linearGradient id="hammerHead" x1="0%" y1="0%" x2="100%" y2="100%">
      <stop offset="0%" stop-color="#B0BEC5"/>
      <stop offset="100%" stop-color="#78909C"/>
    </linearGradient>
    <radialGradient id="plasmaCore">
      <stop offset="0%" stop-color="#E1F5FE"/>
      <stop offset="50%" stop-color="#4FC3F7"/>
      <stop offset="100%" stop-color="#01579B"/>
    </radialGradient>
    <filter id="plasmaGlow" x="-50%" y="-50%" width="200%" height="200%">
      <feGaussianBlur in="SourceGraphic" stdDeviation="4" result="blur"/>
      <feMerge>
        <feMergeNode in="blur"/>
        <feMergeNode in="SourceGraphic"/>
      </feMerge>
    </filter>
  </defs>

  <!-- Древко -->
  <rect x="45" y="20" width="10" height="100" fill="url(#handle)" stroke="#000" stroke-width="1"/>
  
  <!-- Металлические укрепления на древке -->
  <rect x="43" y="25" width="14" height="6" fill="#37474F" stroke="#000" stroke-width="0.5"/>
  <rect x="43" y="50" width="14" height="4" fill="#37474F" stroke="#000" stroke-width="0.5"/>
  <rect x="43" y="80" width="14" height="6" fill="#37474F" stroke="#000" stroke-width="0.5"/>
  
  <!-- Головная часть -->
  <!-- Основа -->
  <rect x="30" y="15" width="40" height="25" fill="url(#hammerHead)" stroke="#000" stroke-width="1.5" rx="3"/>
  
  <!-- Плазменный эмиттер -->
  <circle cx="50" cy="27" r="12" fill="url(#plasmaCore)" filter="url(#plasmaGlow)" stroke="#01579B" stroke-width="1"/>
  
  <!-- Технологические детали -->
  <!-- Боковые панели -->
  <rect x="30" y="18" width="5" height="19" fill="#455A64" stroke="#000" stroke-width="0.5"/>
  <rect x="65" y="18" width="5" height="19" fill="#455A64" stroke="#000" stroke-width="0.5"/>
  
  <!-- Энергетические каналы -->
  <path d="M 40 20 L 45 15 L 45 40" fill="none" stroke="#4FC3F7" stroke-width="1" stroke-dasharray="2,1"/>
  <path d="M 60 20 L 55 15 L 55 40" fill="none" stroke="#4FC3F7" stroke-width="1" stroke-dasharray="2,1"/>
  
  <!-- Рунические надписи -->
  <path d="M 35 35 L 37 33 L 39 35 L 37 37 Z" fill="#FFD700"/> <!-- Символ молнии -->
  <path d="M 62 35 L 64 33 L 66 35 L 64 37 Z" fill="#FFD700"/> <!-- Символ молнии -->
  
  <!-- Индикаторы -->
  <circle cx="38" cy="25" r="1.5" fill="#00E676"/>
  <circle cx="62" cy="25" r="1.5" fill="#00E676"/>
  
  <!-- Задняя ударная часть -->
  <rect x="35" y="10" width="30" height="8" fill="#546E7A" stroke="#000" stroke-width="1" rx="2"/>
  
  <!-- Энергетическое поле -->
  <circle cx="50" cy="27" r="18" fill="none" stroke="#4FC3F7" stroke-width="0.7" stroke-dasharray="3,2" opacity="0.6"/>
  
  <!-- Исходящая энергия -->
  <path d="M 50 15 Q 45 5 40 0" fill="none" stroke="#4FC3F7" stroke-width="1.5" opacity="0.8"/>
  <path d="M 50 15 Q 55 5 60 0" fill="none" stroke="#4FC3F7" stroke-width="1.5" opacity="0.8"/>
</svg>